<mxfile host="Electron" modified="2024-04-30T17:18:13.968Z" agent="Mozilla/5.0 (Windows NT 10.0; Win64; x64) AppleWebKit/537.36 (KHTML, like Gecko) draw.io/24.2.5 Chrome/120.0.6099.109 Electron/28.1.0 Safari/537.36" etag="qqMs-jVKrHzcoh_V4usX" version="24.2.5" type="device">
  <diagram name="Page-1" id="SIGnsm225GO5JNdO_QR3">
    <mxGraphModel dx="7152" dy="5348" grid="0" gridSize="10" guides="1" tooltips="1" connect="1" arrows="1" fold="1" page="1" pageScale="1" pageWidth="600" pageHeight="900" math="0" shadow="0">
      <root>
        <mxCell id="0" />
        <mxCell id="1" parent="0" />
        <mxCell id="l2tNoZ4C5hW8YFkD3VC2-25" style="edgeStyle=orthogonalEdgeStyle;rounded=0;orthogonalLoop=1;jettySize=auto;html=1;entryX=0.75;entryY=0;entryDx=0;entryDy=0;" edge="1" parent="1" source="l2tNoZ4C5hW8YFkD3VC2-2" target="l2tNoZ4C5hW8YFkD3VC2-16">
          <mxGeometry relative="1" as="geometry" />
        </mxCell>
        <mxCell id="l2tNoZ4C5hW8YFkD3VC2-2" value="&lt;font face=&quot;Tahoma&quot; style=&quot;font-size: 18px;&quot;&gt;Passenger Profile Dimension&lt;/font&gt;" style="swimlane;html=1;startSize=23;verticalAlign=bottom;labelBorderColor=none;fillColor=#dae8fc;strokeColor=#6c8ebf;swimlaneFillColor=default;" vertex="1" parent="1">
          <mxGeometry x="-439" y="-2555" width="350" height="240" as="geometry" />
        </mxCell>
        <mxCell id="l2tNoZ4C5hW8YFkD3VC2-3" value="&lt;div style=&quot;font-size: 22px;&quot;&gt;&lt;span style=&quot;background-color: initial;&quot;&gt;&lt;font style=&quot;font-size: 22px;&quot; face=&quot;Tahoma&quot;&gt;Passenger Profile Key (SK)&amp;nbsp;&lt;/font&gt;&lt;/span&gt;&lt;/div&gt;&lt;font face=&quot;EAJwP0S1NvUOIz2sHdJX&quot; style=&quot;font-size: 22px;&quot;&gt;&lt;div style=&quot;&quot;&gt;&lt;span style=&quot;white-space-collapse: preserve; border: 0px solid rgb(227, 227, 227); box-sizing: border-box; --tw-border-spacing-x: 0; --tw-border-spacing-y: 0; --tw-translate-x: 0; --tw-translate-y: 0; --tw-rotate: 0; --tw-skew-x: 0; --tw-skew-y: 0; --tw-scale-x: 1; --tw-scale-y: 1; --tw-pan-x: ; --tw-pan-y: ; --tw-pinch-zoom: ; --tw-scroll-snap-strictness: proximity; --tw-gradient-from-position: ; --tw-gradient-via-position: ; --tw-gradient-to-position: ; --tw-ordinal: ; --tw-slashed-zero: ; --tw-numeric-figure: ; --tw-numeric-spacing: ; --tw-numeric-fraction: ; --tw-ring-inset: ; --tw-ring-offset-width: 0px; --tw-ring-offset-color: #fff; --tw-ring-color: rgba(69,89,164,.5); --tw-ring-offset-shadow: 0 0 transparent; --tw-ring-shadow: 0 0 transparent; --tw-shadow: 0 0 transparent; --tw-shadow-colored: 0 0 transparent; --tw-blur: ; --tw-brightness: ; --tw-contrast: ; --tw-grayscale: ; --tw-hue-rotate: ; --tw-invert: ; --tw-saturate: ; --tw-sepia: ; --tw-drop-shadow: ; --tw-backdrop-blur: ; --tw-backdrop-brightness: ; --tw-backdrop-contrast: ; --tw-backdrop-grayscale: ; --tw-backdrop-hue-rotate: ; --tw-backdrop-invert: ; --tw-backdrop-opacity: ; --tw-backdrop-saturate: ; --tw-backdrop-sepia: ; --tw-contain-size: ; --tw-contain-layout: ; --tw-contain-paint: ; --tw-contain-style: ; color: rgb(13, 13, 13); margin-top: 1.25em; margin-bottom: 1.25em; background-color: rgb(255, 255, 255);&quot;&gt;Membership &lt;/span&gt;&lt;span style=&quot;background-color: initial;&quot;&gt;&amp;nbsp;Tier&lt;/span&gt;&lt;/div&gt;&lt;span style=&quot;background-color: initial;&quot;&gt;&lt;div style=&quot;&quot;&gt;&lt;span style=&quot;background-color: initial;&quot;&gt;Home Airport&lt;/span&gt;&lt;/div&gt;&lt;/span&gt;&lt;span style=&quot;background-color: initial;&quot;&gt;&lt;div style=&quot;&quot;&gt;&lt;span style=&quot;background-color: initial;&quot;&gt;Club Membership Status&lt;/span&gt;&lt;/div&gt;&lt;/span&gt;&lt;span style=&quot;background-color: initial;&quot;&gt;&lt;div style=&quot;&quot;&gt;&lt;span style=&quot;background-color: initial;&quot;&gt;Lifetime Mileage Tier&lt;/span&gt;&lt;/div&gt;&lt;/span&gt;&lt;span style=&quot;background-color: initial;&quot;&gt;&lt;div style=&quot;&quot;&gt;&lt;span style=&quot;background-color: initial;&quot;&gt;frequent flyer status&lt;/span&gt;&lt;/div&gt;&lt;/span&gt;&lt;/font&gt;" style="text;html=1;strokeColor=none;fillColor=none;align=center;verticalAlign=middle;whiteSpace=wrap;rounded=0;" vertex="1" parent="l2tNoZ4C5hW8YFkD3VC2-2">
          <mxGeometry x="45" y="53" width="260" height="150" as="geometry" />
        </mxCell>
        <mxCell id="l2tNoZ4C5hW8YFkD3VC2-4" style="edgeStyle=orthogonalEdgeStyle;rounded=0;orthogonalLoop=1;jettySize=auto;html=1;entryX=1;entryY=0.25;entryDx=0;entryDy=0;" edge="1" parent="1" source="l2tNoZ4C5hW8YFkD3VC2-5" target="l2tNoZ4C5hW8YFkD3VC2-16">
          <mxGeometry relative="1" as="geometry" />
        </mxCell>
        <mxCell id="l2tNoZ4C5hW8YFkD3VC2-5" value="&lt;font style=&quot;font-size: 20px;&quot;&gt;&lt;font style=&quot;font-size: 20px;&quot;&gt;Time&amp;nbsp;&lt;/font&gt;&lt;font style=&quot;font-size: 20px;&quot;&gt;Dimension&amp;nbsp;&lt;/font&gt;&lt;/font&gt;" style="swimlane;whiteSpace=wrap;html=1;fillColor=#dae8fc;strokeColor=#6c8ebf;swimlaneFillColor=default;" vertex="1" parent="1">
          <mxGeometry x="1361" y="-2652" width="350" height="308" as="geometry" />
        </mxCell>
        <mxCell id="l2tNoZ4C5hW8YFkD3VC2-6" value="&lt;div style=&quot;text-align: left; font-size: 22px;&quot;&gt;&lt;font style=&quot;font-size: 22px;&quot;&gt;&lt;font style=&quot;font-size: 22px;&quot; face=&quot;Tahoma&quot;&gt;&lt;br&gt;&lt;span style=&quot;background-color: initial;&quot;&gt;Time (PK)&lt;/span&gt;&lt;br&gt;&lt;span style=&quot;background-color: initial;&quot;&gt;Time Id&lt;/span&gt;&lt;br&gt;&lt;span style=&quot;background-color: initial;&quot;&gt;Hour&lt;/span&gt;&lt;br&gt;&lt;span style=&quot;background-color: initial;&quot;&gt;Minute&lt;/span&gt;&lt;br&gt;&lt;span style=&quot;background-color: initial;&quot;&gt;DaytimeName&lt;/span&gt;&lt;br&gt;&lt;span style=&quot;background-color: initial;&quot;&gt;Shifts&lt;/span&gt;&lt;br&gt;&lt;span style=&quot;background-color: initial;&quot;&gt;DayNight&lt;/span&gt;&lt;/font&gt;&lt;br&gt;&lt;/font&gt;&lt;/div&gt;&lt;font style=&quot;font-size: 22px;&quot;&gt;&lt;font style=&quot;font-size: 22px;&quot;&gt;&lt;div style=&quot;text-align: left;&quot;&gt;&lt;div&gt;&lt;br&gt;&lt;/div&gt;&lt;/div&gt;&lt;/font&gt;&lt;/font&gt;" style="text;html=1;align=center;verticalAlign=middle;resizable=0;points=[];autosize=1;strokeColor=none;fillColor=none;" vertex="1" parent="l2tNoZ4C5hW8YFkD3VC2-5">
          <mxGeometry x="108" y="26" width="154" height="256" as="geometry" />
        </mxCell>
        <mxCell id="l2tNoZ4C5hW8YFkD3VC2-7" style="edgeStyle=orthogonalEdgeStyle;rounded=0;orthogonalLoop=1;jettySize=auto;html=1;entryX=0;entryY=0.25;entryDx=0;entryDy=0;exitX=1;exitY=0.5;exitDx=0;exitDy=0;" edge="1" parent="1" source="l2tNoZ4C5hW8YFkD3VC2-8" target="l2tNoZ4C5hW8YFkD3VC2-16">
          <mxGeometry relative="1" as="geometry">
            <Array as="points">
              <mxPoint x="-510" y="-2065" />
              <mxPoint x="-510" y="-2270" />
            </Array>
          </mxGeometry>
        </mxCell>
        <mxCell id="l2tNoZ4C5hW8YFkD3VC2-8" value="&lt;b style=&quot;&quot;&gt;&lt;font style=&quot;font-size: 16px;&quot;&gt;Passenger&lt;/font&gt;&lt;/b&gt;" style="swimlane;whiteSpace=wrap;html=1;swimlaneFillColor=default;fillColor=#dae8fc;strokeColor=#6c8ebf;" vertex="1" parent="1">
          <mxGeometry x="-1035" y="-2205" width="350" height="280" as="geometry" />
        </mxCell>
        <mxCell id="l2tNoZ4C5hW8YFkD3VC2-9" value="&lt;font face=&quot;Tahoma&quot;&gt;&lt;span style=&quot;font-size: 18px; border: 0px solid rgb(227, 227, 227); box-sizing: border-box; --tw-border-spacing-x: 0; --tw-border-spacing-y: 0; --tw-translate-x: 0; --tw-translate-y: 0; --tw-rotate: 0; --tw-skew-x: 0; --tw-skew-y: 0; --tw-scale-x: 1; --tw-scale-y: 1; --tw-pan-x: ; --tw-pan-y: ; --tw-pinch-zoom: ; --tw-scroll-snap-strictness: proximity; --tw-gradient-from-position: ; --tw-gradient-via-position: ; --tw-gradient-to-position: ; --tw-ordinal: ; --tw-slashed-zero: ; --tw-numeric-figure: ; --tw-numeric-spacing: ; --tw-numeric-fraction: ; --tw-ring-inset: ; --tw-ring-offset-width: 0px; --tw-ring-offset-color: #fff; --tw-ring-color: rgba(69,89,164,.5); --tw-ring-offset-shadow: 0 0 transparent; --tw-ring-shadow: 0 0 transparent; --tw-shadow: 0 0 transparent; --tw-shadow-colored: 0 0 transparent; --tw-blur: ; --tw-brightness: ; --tw-contrast: ; --tw-grayscale: ; --tw-hue-rotate: ; --tw-invert: ; --tw-saturate: ; --tw-sepia: ; --tw-drop-shadow: ; --tw-backdrop-blur: ; --tw-backdrop-brightness: ; --tw-backdrop-contrast: ; --tw-backdrop-grayscale: ; --tw-backdrop-hue-rotate: ; --tw-backdrop-invert: ; --tw-backdrop-opacity: ; --tw-backdrop-saturate: ; --tw-backdrop-sepia: ; --tw-contain-size: ; --tw-contain-layout: ; --tw-contain-paint: ; --tw-contain-style: ; color: rgb(13, 13, 13); margin-top: 1.25em; margin-bottom: 1.25em; text-align: left; white-space-collapse: preserve; background-color: rgb(255, 255, 255);&quot;&gt;Passenger key &lt;/span&gt;&lt;span style=&quot;font-size: 18px; text-wrap: nowrap; background-color: initial;&quot;&gt;(SK)&lt;/span&gt;&lt;br&gt;&lt;span style=&quot;background-color: rgb(255, 255, 255); color: rgb(13, 13, 13); text-align: left; white-space-collapse: preserve; font-size: 18px;&quot;&gt;FirstName &lt;/span&gt;&lt;br&gt;&lt;span style=&quot;background-color: rgb(255, 255, 255); color: rgb(13, 13, 13); text-align: left; white-space-collapse: preserve; font-size: 18px;&quot;&gt;LastName&lt;/span&gt;&lt;br&gt;&lt;span style=&quot;background-color: rgb(255, 255, 255); color: rgb(13, 13, 13); text-align: left; white-space-collapse: preserve; font-size: 18px;&quot;&gt;Gender&lt;/span&gt;&lt;br&gt;&lt;span style=&quot;background-color: rgb(255, 255, 255); color: rgb(13, 13, 13); text-align: left; white-space-collapse: preserve; font-size: 18px;&quot;&gt;DateOfBirth&lt;/span&gt;&lt;br&gt;&lt;span style=&quot;background-color: rgb(255, 255, 255); color: rgb(13, 13, 13); text-align: left; white-space-collapse: preserve; font-size: 18px;&quot;&gt;Address&lt;/span&gt;&lt;br&gt;&lt;span style=&quot;white-space: pre; font-size: 18px; color: rgb(13, 13, 13); background-color: rgb(255, 255, 255); text-align: left;&quot;&gt;INCOME_LEVEL&lt;/span&gt;&lt;br&gt;&lt;span style=&quot;white-space: pre; font-size: 18px; color: rgb(13, 13, 13); background-color: rgb(255, 255, 255); text-align: left;&quot;&gt;MARITAL_STATUS&lt;/span&gt;&lt;br&gt;&lt;span style=&quot;background-color: rgb(255, 255, 255); color: rgb(13, 13, 13); text-align: left; white-space-collapse: preserve; font-size: 18px;&quot;&gt;SpecialNeeds&lt;/span&gt;&lt;br&gt;&lt;span style=&quot;background-color: rgb(255, 255, 255); color: rgb(13, 13, 13); text-align: left; white-space-collapse: preserve; font-size: 18px;&quot;&gt;Nationality&lt;/span&gt;&lt;br&gt;&lt;span style=&quot;background-color: rgb(255, 255, 255); color: rgb(13, 13, 13); text-align: left; white-space-collapse: preserve; font-size: 18px;&quot;&gt;Email&lt;/span&gt;&lt;/font&gt;" style="text;html=1;align=center;verticalAlign=middle;whiteSpace=wrap;rounded=0;" vertex="1" parent="l2tNoZ4C5hW8YFkD3VC2-8">
          <mxGeometry y="40" width="230" height="230" as="geometry" />
        </mxCell>
        <mxCell id="l2tNoZ4C5hW8YFkD3VC2-22" style="edgeStyle=orthogonalEdgeStyle;rounded=0;orthogonalLoop=1;jettySize=auto;html=1;" edge="1" parent="1" source="l2tNoZ4C5hW8YFkD3VC2-11">
          <mxGeometry relative="1" as="geometry">
            <mxPoint x="790.400146484375" y="-1924" as="targetPoint" />
          </mxGeometry>
        </mxCell>
        <mxCell id="l2tNoZ4C5hW8YFkD3VC2-11" value="&lt;font style=&quot;font-size: 22px;&quot;&gt;Date Dimension&lt;/font&gt;" style="swimlane;whiteSpace=wrap;html=1;fillColor=#dae8fc;strokeColor=#6c8ebf;swimlaneFillColor=default;" vertex="1" parent="1">
          <mxGeometry x="1361" y="-2147" width="350" height="666" as="geometry" />
        </mxCell>
        <mxCell id="l2tNoZ4C5hW8YFkD3VC2-12" value="&lt;div style=&quot;text-align: center; font-size: 22px;&quot;&gt;&lt;span style=&quot;background-color: initial;&quot;&gt;&lt;font face=&quot;Tahoma&quot; style=&quot;font-size: 22px;&quot;&gt;Date Key (PK)&lt;/font&gt;&lt;/span&gt;&lt;/div&gt;&lt;font face=&quot;E_Vse2sqt-GHe94hN0gW&quot; style=&quot;font-size: 22px;&quot;&gt;&lt;span style=&quot;background-color: initial;&quot;&gt;&lt;div style=&quot;text-align: center;&quot;&gt;&lt;span style=&quot;background-color: initial;&quot;&gt;Date&lt;/span&gt;&lt;/div&gt;&lt;/span&gt;&lt;span style=&quot;background-color: initial;&quot;&gt;&lt;div style=&quot;text-align: center;&quot;&gt;&lt;span style=&quot;background-color: initial;&quot;&gt;Day of the Week&lt;/span&gt;&lt;/div&gt;&lt;/span&gt;&lt;span style=&quot;background-color: initial;&quot;&gt;&lt;div style=&quot;text-align: center;&quot;&gt;&lt;span style=&quot;background-color: initial;&quot;&gt;Day of the Month&lt;/span&gt;&lt;/div&gt;&lt;/span&gt;&lt;span style=&quot;background-color: initial;&quot;&gt;&lt;div style=&quot;text-align: center;&quot;&gt;&lt;span style=&quot;background-color: initial;&quot;&gt;Day of the Year&lt;/span&gt;&lt;/div&gt;&lt;/span&gt;&lt;span style=&quot;background-color: initial;&quot;&gt;&lt;div style=&quot;text-align: center;&quot;&gt;&lt;span style=&quot;background-color: initial;&quot;&gt;Week Number&lt;/span&gt;&lt;/div&gt;&lt;/span&gt;&lt;span style=&quot;background-color: initial;&quot;&gt;&lt;div style=&quot;text-align: center;&quot;&gt;&lt;span style=&quot;background-color: initial;&quot;&gt;Month&lt;/span&gt;&lt;/div&gt;&lt;/span&gt;&lt;span style=&quot;background-color: initial;&quot;&gt;&lt;div style=&quot;text-align: center;&quot;&gt;&lt;span style=&quot;background-color: initial;&quot;&gt;Quarter&lt;/span&gt;&lt;/div&gt;&lt;/span&gt;&lt;span style=&quot;background-color: initial;&quot;&gt;&lt;div style=&quot;text-align: center;&quot;&gt;&lt;span style=&quot;background-color: initial;&quot;&gt;Year&lt;/span&gt;&lt;/div&gt;&lt;/span&gt;&lt;span style=&quot;background-color: initial;&quot;&gt;&lt;div style=&quot;text-align: center;&quot;&gt;&lt;span style=&quot;background-color: initial;&quot;&gt;Holiday Indicator&lt;/span&gt;&lt;/div&gt;&lt;/span&gt;&lt;span style=&quot;background-color: initial;&quot;&gt;&lt;div style=&quot;text-align: center;&quot;&gt;&lt;span style=&quot;background-color: initial;&quot;&gt;Weekday/Weekend Indicator&lt;/span&gt;&lt;/div&gt;&lt;/span&gt;&lt;span style=&quot;background-color: initial;&quot;&gt;&lt;div style=&quot;text-align: center;&quot;&gt;&lt;span style=&quot;background-color: initial;&quot;&gt;Season&lt;/span&gt;&lt;/div&gt;&lt;/span&gt;&lt;span style=&quot;background-color: initial;&quot;&gt;&lt;div style=&quot;text-align: center;&quot;&gt;&lt;span style=&quot;background-color: initial;&quot;&gt;Fiscal Period&lt;/span&gt;&lt;/div&gt;&lt;/span&gt;&lt;span style=&quot;background-color: initial;&quot;&gt;&lt;div style=&quot;text-align: center;&quot;&gt;&lt;span style=&quot;background-color: initial;&quot;&gt;Fiscal Year&lt;/span&gt;&lt;/div&gt;&lt;/span&gt;&lt;span style=&quot;background-color: initial;&quot;&gt;&lt;div style=&quot;text-align: center;&quot;&gt;&lt;span style=&quot;background-color: initial;&quot;&gt;Financial Period&lt;/span&gt;&lt;/div&gt;&lt;/span&gt;&lt;span style=&quot;background-color: initial;&quot;&gt;&lt;div style=&quot;text-align: center;&quot;&gt;&lt;span style=&quot;background-color: initial;&quot;&gt;Financial Year&lt;/span&gt;&lt;/div&gt;&lt;/span&gt;&lt;span style=&quot;background-color: initial;&quot;&gt;&lt;div style=&quot;text-align: center;&quot;&gt;&lt;span style=&quot;background-color: initial;&quot;&gt;Quarter Start/End Dates&lt;/span&gt;&lt;/div&gt;&lt;/span&gt;&lt;span style=&quot;background-color: initial;&quot;&gt;&lt;div style=&quot;text-align: center;&quot;&gt;&lt;span style=&quot;background-color: initial;&quot;&gt;Month Start/End Dates&lt;/span&gt;&lt;/div&gt;&lt;/span&gt;&lt;span style=&quot;background-color: initial;&quot;&gt;&lt;div style=&quot;text-align: center;&quot;&gt;&lt;span style=&quot;background-color: initial;&quot;&gt;Week Start/End Dates&lt;/span&gt;&lt;/div&gt;&lt;/span&gt;&lt;span style=&quot;background-color: initial;&quot;&gt;&lt;div style=&quot;text-align: center;&quot;&gt;&lt;span style=&quot;background-color: initial;&quot;&gt;Day Type&lt;/span&gt;&lt;/div&gt;&lt;/span&gt;&lt;span style=&quot;background-color: initial;&quot;&gt;&lt;div style=&quot;text-align: center;&quot;&gt;&lt;span style=&quot;background-color: initial;&quot;&gt;Leap Year Indicator&lt;/span&gt;&lt;/div&gt;&lt;/span&gt;&lt;/font&gt;" style="text;html=1;strokeColor=none;fillColor=none;align=left;verticalAlign=middle;whiteSpace=wrap;rounded=0;" vertex="1" parent="l2tNoZ4C5hW8YFkD3VC2-11">
          <mxGeometry x="67.5" y="155" width="215" height="360" as="geometry" />
        </mxCell>
        <mxCell id="l2tNoZ4C5hW8YFkD3VC2-24" style="edgeStyle=orthogonalEdgeStyle;rounded=0;orthogonalLoop=1;jettySize=auto;html=1;entryX=0;entryY=0.5;entryDx=0;entryDy=0;" edge="1" parent="1" source="l2tNoZ4C5hW8YFkD3VC2-14" target="l2tNoZ4C5hW8YFkD3VC2-16">
          <mxGeometry relative="1" as="geometry" />
        </mxCell>
        <mxCell id="l2tNoZ4C5hW8YFkD3VC2-14" value="&lt;font style=&quot;font-size: 18px;&quot;&gt;Booking Channel Dimension&lt;/font&gt;" style="swimlane;whiteSpace=wrap;html=1;fontSize=14;fillColor=#dae8fc;strokeColor=#6c8ebf;swimlaneFillColor=default;" vertex="1" parent="1">
          <mxGeometry x="-395" y="-1925" width="350" height="292" as="geometry" />
        </mxCell>
        <mxCell id="l2tNoZ4C5hW8YFkD3VC2-15" value="&lt;font face=&quot;Tahoma&quot; style=&quot;font-size: 22px;&quot;&gt;Booking Channel Key (SK)&lt;br style=&quot;&quot;&gt;Booking Channel ID&lt;br style=&quot;&quot;&gt;Booking Channel Name&lt;br style=&quot;&quot;&gt;Booking Channel Type&lt;br style=&quot;&quot;&gt;Online/Offline Indicator&lt;/font&gt;" style="text;html=1;strokeColor=none;fillColor=none;align=center;verticalAlign=middle;whiteSpace=wrap;rounded=0;fontSize=14;" vertex="1" parent="l2tNoZ4C5hW8YFkD3VC2-14">
          <mxGeometry x="51" y="98.5" width="232" height="95" as="geometry" />
        </mxCell>
        <mxCell id="l2tNoZ4C5hW8YFkD3VC2-16" value="&lt;font face=&quot;Tahoma&quot; style=&quot;font-size: 20px;&quot;&gt;Flight Activity Trip&lt;/font&gt;" style="swimlane;whiteSpace=wrap;html=1;fillColor=#ffe6cc;strokeColor=#d79b00;swimlaneFillColor=default;" vertex="1" parent="1">
          <mxGeometry x="240" y="-2520" width="551" height="1000" as="geometry" />
        </mxCell>
        <mxCell id="l2tNoZ4C5hW8YFkD3VC2-17" value="&lt;font face=&quot;Tahoma&quot; style=&quot;font-size: 25px;&quot;&gt;&lt;b style=&quot;&quot;&gt;&lt;br&gt;&lt;div style=&quot;&quot;&gt;Segment Origin Airport Key (FK)&lt;br&gt;Segment Destination&amp;nbsp;&amp;nbsp;Airport Key (FK)&lt;/div&gt;Booking Channel Key (FK)&lt;div style=&quot;&quot;&gt;&lt;span style=&quot;background-color: initial;&quot;&gt;Scheduled Departure Date Key (FK)&lt;/span&gt;&lt;br&gt;&lt;/div&gt;&lt;/b&gt;&lt;/font&gt;&lt;div style=&quot;font-size: 25px;&quot;&gt;&lt;font face=&quot;hQFFeFVU9FYJdYjxfjJt&quot; style=&quot;font-size: 25px;&quot;&gt;&lt;b&gt;Scheduled Departure&amp;nbsp;Time Key (FK)&lt;/b&gt;&lt;/font&gt;&lt;/div&gt;&lt;div style=&quot;font-size: 25px;&quot;&gt;&lt;font face=&quot;hQFFeFVU9FYJdYjxfjJt&quot; style=&quot;font-size: 25px;&quot;&gt;&lt;b&gt;Actual Departure Date Key (FK)&lt;br&gt;Actual Departure Time Key (FK)&lt;/b&gt;&lt;/font&gt;&lt;/div&gt;&lt;div style=&quot;font-size: 25px;&quot;&gt;&lt;font face=&quot;hQFFeFVU9FYJdYjxfjJt&quot; style=&quot;font-size: 25px;&quot;&gt;&lt;b&gt;Passenger Key (FK)&lt;br&gt;Passenger Profile Key (FK)&lt;br&gt;&lt;/b&gt;&lt;/font&gt;&lt;/div&gt;&lt;font face=&quot;hQFFeFVU9FYJdYjxfjJt&quot; style=&quot;font-size: 25px;&quot;&gt;&lt;b&gt;Confirmation Number (DD)&lt;/b&gt;&lt;/font&gt;&lt;div style=&quot;font-size: 25px;&quot;&gt;&lt;font face=&quot;hQFFeFVU9FYJdYjxfjJt&quot; style=&quot;font-size: 25px;&quot;&gt;&lt;b style=&quot;&quot;&gt;&lt;br&gt;Base Fare Revenue&amp;nbsp;&lt;br&gt;Overnight Stay&lt;br&gt;Passenger Facility Charges&lt;br&gt;Airport Tax&lt;br&gt;Government Tax&lt;br&gt;Baggage Charges&lt;br&gt;Upgrade Fees&lt;br&gt;Transaction Fees&lt;br&gt;Segment Miles Flown&lt;br&gt;Segment Miles Earned&lt;br&gt;Trip Duration&lt;br&gt;Overnight Stay Duration&lt;br&gt;Delay Duration&lt;/b&gt;&lt;/font&gt;&lt;/div&gt;" style="text;html=1;align=center;verticalAlign=middle;resizable=0;points=[];autosize=1;strokeColor=none;fillColor=none;" vertex="1" parent="l2tNoZ4C5hW8YFkD3VC2-16">
          <mxGeometry x="25.5" y="119" width="500" height="762" as="geometry" />
        </mxCell>
        <mxCell id="l2tNoZ4C5hW8YFkD3VC2-18" value="" style="line;strokeWidth=1;html=1;" vertex="1" parent="l2tNoZ4C5hW8YFkD3VC2-16">
          <mxGeometry x="33.75" y="454" width="483.5" height="32" as="geometry" />
        </mxCell>
      </root>
    </mxGraphModel>
  </diagram>
</mxfile>
